<?xml version="1.0" encoding="UTF-8"?>
<svg id="Ebene_1" data-name="Ebene 1" xmlns="http://www.w3.org/2000/svg" viewBox="0 0 459.62 459.62">
  <defs>
    <style>
      .cls-1 {
        fill: #4f9783;
      }

      .cls-2 {
        fill: #617470;
      }

      .cls-3 {
        fill: #2e3e61;
      }

      .cls-4 {
        fill: #353862;
      }

      .cls-5 {
        fill: #69a772;
      }

      .cls-6 {
        fill: #464c6e;
      }

      .cls-7 {
        fill: #8bb576;
      }

      .cls-8 {
        fill: #2c4f67;
      }

      .cls-9 {
        fill: #495d70;
      }

      .cls-10 {
        fill: #7fb469;
      }

      .cls-11 {
        fill: #5d9594;
      }

      .cls-12 {
        fill: #8bb969;
      }

      .cls-13 {
        fill: #736091;
      }

      .cls-14 {
        fill: #69788b;
      }

      .cls-15 {
        fill: #5fa276;
      }

      .cls-16 {
        fill: #364161;
      }

      .cls-17 {
        fill: #7eb16e;
      }

      .cls-18 {
        fill: #5f6a7e;
      }

      .cls-19 {
        fill: #2d4464;
      }

      .cls-20 {
        fill: #335b67;
      }

      .cls-21 {
        fill: #7fb36d;
      }

      .cls-22 {
        fill: #6d7780;
      }

      .cls-23 {
        fill: #6f5f8d;
      }

      .cls-24 {
        fill: #5d5979;
      }

      .cls-25 {
        fill: #69628d;
      }

      .cls-26 {
        fill: #2a2b4b;
      }

      .cls-27 {
        fill: #658093;
      }

      .cls-28 {
        fill: #4d8782;
      }

      .cls-29 {
        fill: #87b768;
      }

      .cls-30 {
        fill: #4d4a6e;
      }

      .cls-31 {
        fill: #78ae6d;
      }

      .cls-32 {
        fill: #75a56d;
      }

      .cls-33 {
        fill: #66717c;
      }

      .cls-34 {
        fill: #565279;
      }

      .cls-35 {
        fill: #2d365c;
      }

      .cls-36 {
        fill: #423262;
      }

      .cls-37 {
        fill: #31375f;
      }

      .cls-38 {
        fill: #69757a;
      }

      .cls-39 {
        fill: #6a648c;
      }

      .cls-40 {
        fill: #8fc062;
      }

      .cls-41 {
        fill: #59a278;
      }

      .cls-42 {
        fill: #70ac6f;
      }

      .cls-43 {
        fill: #fff;
      }

      .cls-44 {
        fill: #5e5578;
      }

      .cls-45 {
        fill: #222f47;
      }

      .cls-46 {
        fill: #79b06a;
      }

      .cls-47 {
        fill: #59a081;
      }

      .cls-48 {
        fill: #9ac65c;
      }

      .cls-49 {
        fill: #5b5d79;
      }

      .cls-50 {
        fill: #8cbc70;
      }

      .cls-51 {
        fill: #2d556a;
      }

      .cls-52 {
        fill: #5f8d94;
      }

      .cls-53 {
        fill: #326671;
      }

      .cls-54 {
        fill: #4e998b;
      }

      .cls-55 {
        fill: #173242;
      }

      .cls-56 {
        fill: #30626d;
      }

      .cls-57 {
        fill: #6d628c;
      }

      .cls-58 {
        fill: #6b7190;
      }

      .cls-59 {
        fill: #608e97;
      }

      .cls-60 {
        fill: #608b94;
      }

      .cls-61 {
        fill: #332653;
      }

      .cls-62 {
        fill: #463664;
      }

      .cls-63 {
        fill: #585a76;
      }

      .cls-64 {
        fill: #5c5f77;
      }

      .cls-65 {
        fill: #647878;
      }

      .cls-66 {
        fill: #282b50;
      }

      .cls-67 {
        fill: #384965;
      }

      .cls-68 {
        fill: #71ac75;
      }

      .cls-69 {
        fill: #687589;
      }

      .cls-70 {
        fill: #6b648f;
      }

      .cls-71 {
        fill: #8cbe5f;
      }

      .cls-72 {
        fill: #617175;
      }

      .cls-73 {
        fill: #677c8c;
      }

      .cls-74 {
        fill: #70628e;
      }

      .cls-75 {
        fill: #2f6572;
      }

      .cls-76 {
        fill: #6aa36f;
      }

      .cls-77 {
        fill: #538075;
      }

      .cls-78 {
        fill: #5aa27e;
      }

      .cls-79 {
        fill: #333e5d;
      }

      .cls-80 {
        fill: #725f90;
      }

      .cls-81 {
        fill: #656f79;
      }

      .cls-82 {
        fill: #5a4c75;
      }

      .cls-83 {
        fill: #7cb16d;
      }

      .cls-84 {
        fill: #5a948c;
      }

      .cls-85 {
        fill: #a2cc63;
      }

      .cls-86 {
        fill: #85b866;
      }

      .cls-87 {
        fill: #66717e;
      }

      .cls-88 {
        fill: #443462;
      }

      .cls-89 {
        fill: #6e638e;
      }

      .cls-90 {
        fill: #342957;
      }

      .cls-91 {
        fill: #3e305f;
      }

      .cls-92 {
        fill: #619873;
      }

      .cls-93 {
        fill: #95c165;
      }

      .cls-94 {
        fill: #6a787d;
      }

      .cls-95 {
        fill: #469888;
      }
    </style>
  </defs>
  <rect class="cls-43" width="459.62" height="459.62"/>
  <g>
    <path class="cls-45" d="M26.36,266.91c22.83-14.69,33.31-44.35,53.33-60.86,31.95-26.34,53.03,31.84,67.36,51.43,31.05-.76,43.68-37.25,58.41-59.31,26.51-39.7,48.92-16.85,69.04,12.57,13.75,20.11,24.77,42.33,39.23,62.04,27.97-7.69,37.61-64.78,73.03-48.64,19.55,8.9,38.5,37.78,60.79,50.91,4.05,2.39,10.16,6.83,12.08,8.32.93,41.6,2.59,85.1-.4,125.69-1.87,25.43-21.58,47.75-47.37,50.37H48.76c-3.39.32-6.32-1.19-9.43-2.04-1.26-2.73.49-2.99,2.9-3.17,45.36,1.37,91.05.88,137.08-1.47l16.39,1.7c.35-1.05.92-1.75,2.2-2.05,2.43-2.08,8.5.65,10.97,1.99,1.18-.82,2.46-1.7,3.93-1.83,7.44-.66,26.75-1.91,33.02-.47.71.16,1.33.68,1.94,1.3l14.88-1.42c44.79-.2,88.59.41,131.38,1.83,9.15-.09,18.31-.64,27.27-2.41.4-3.66,6.72-4.81,9.97-4.99-.98-3.28,3.12-4.89,5.98-4.99l-.52-2.25c.87-.25,7.3-7.54,6.53-7.62l-13.37,1.82c-15.69.04-5.96-9.56,4.25-8.33l13.57-.42c4.49-11.31,4-11.79-8.41-12.08-15.06.77-29.68,4.41-43.85,10.94l-3.07-.99c-3.58,2.22-3.66-4.01,1-3.99,2.84-3.73,10.59-6.71,15.46-8.39,5.86-2.01,11.78-3.77,17.95-4.61,7.91-1.07,21.18-2.11,26.43,4.02-3.15-1.6-3.14-12.35,0-13.96l-3.07,1.26c-29.84-11.86-52.88,2.1-77.57,17.94-4.24,3.26-8.28,4.51-12.11,3.74-.34.68-.72,1.33-1.2,1.9-5.13,6.11-40.65,9.13-49.67,6.08-2.19.94-5.54.79-7.98,0-1.13,2.55-1.86,2.55-2.99,0-2.91.61-2.95-4.22-1.2-4.77,9.74.69,19.45.61,29.13-.22l2.85-2.16c19.65-.36,36.23-9.91,52.4-19.46l5.59-1.32c-.1-.47-.18-.95-.18-1.42,0-.91,13.56-7.47,15.85-8.32l2.28.77,2.61-2.75c15.27-4.39,29.57-2.66,43.86,2.48.61-.08.89-6.91.35-7.63-3.31-4.43-40.58-12.18-46.42-5.82-3.47,2.07-6.6,2.65-9.38,1.75-2.21,3.22-5.51,5.81-9.92,7.76l-13.74,9.43-3.27-.23-1.51,3.35c-26.97,19.99-53.3,26.43-86.27,18.81-.31-1.09-.95-1.86-1.98-2.22-3.41-.52-8.45-4.69-2.99-4.99l3.69-1.18c38.09,9.8,69.59-3.55,98.18-28.17,4.19-3.86,8.46-5.71,12.82-5.55,3.57-6.17,14.7-7.99,21.76-8.77,13.03-1.43,26.07,1.7,38.05,6.69,5.06-6.43-12.07-12.03-16.65-13.32-18.02-5.09-31.19-4.82-47.54,5.59l-3.61-.17-1.54,3.33c-11.09,8.08-21.98,16.43-32.67,25.07-56.8,42.88-123.22-1.79-160.57-48.61-10.83-12.59-23.21-19.52-37.47-27.11-.52-.28-.78-1.06-.96-1.98-3.08,0-5.13-.86-6.15-2.56-7.99.44-16.08,1.25-24.25,2.86l-1.68-1.87c-1.47,3.22-3.42,1.84-1.99-1-2.11-2.05.62-4.65,2.99-2.99,1.7-5.04,10.8-5.55,15.81-5.55,25.47.02,54.81,28.65,71.06,46.72l-.11,2.71,2.16.27c1.31,2.98,3.08,4.42,5.31,4.32,23.53,24.5,46.91,40.9,81.6,43.49,26.03,1.94,41.67-9.72,61.23-24.94l3.29-.2c2.52-5.79,10.48-10.91,16.08-14.51,3.47-3.31,7.09-4.79,10.85-4.44l1.7-3.13c21.73-12.33,43.64-6.26,64.09,3.66,1.54-3.97-2.41-6.33-5.71-8.18-20.59-11.56-42.7-13.38-63.2-.34l-3.86.02-1.24,3.2c-7.4,5.53-14.53,11.41-21.37,17.64l-3.32.11c-.62.91-.81,1.93-.65,3.04-17.61,13.7-35.6,27.24-58.94,27.26-33.33.03-57.18-21.41-78.43-44.67l-.6-3.59-3.02-.35c-6.69-7.74-13.62-15.61-20.79-23.59-17.51-19.84-43.4-40.34-70.38-27.22l-2.55-.69c-.66,1.65-1.66,2.64-2.99,2.99l-1.31,2.09c-8.35,2.89-15.67,8.22-21.96,16-5.69,7.13-19.31,6.68-8.64-2.14-1.73-1.32-.73-2.65,2.99-3.99l-.69-2.37c4.36-5.67,9.43-10.71,14.64-15.42-8.69-4.86-19.11-6.78-27.5-.36-.71-.93-1.5-1.3-2.4-.8-1.6,2.6-12.1,14.23-14.55,14.69-.41.08-.9-.26-1.41-.72-2.36-2.6.88-6.02,3.99-5.98-.75-4.22,5.78-9.6,9.25-12.21,6.09-4.59,17.39-9.21,23.66-3.74.22-.83.9-1.93,1.45-1.73,4.35,1.63,8.45,3.51,12.6,5.51.53-.04,8.02-6.17,8.26-6.64.79-1.58-22.16-22.15-28.57-19.12l-1.71-1.95c-1.66,1.98-3.94,3.52-6.83,4.6-9.74,9.42-19.11,19.33-28.12,29.72-3.22,3.39-6.53,5.24-9.93,5.57-6.69,1.95-.54-7.26,3.99-5.98l.25-3.12c4.61-5.75,31.02-37.07,36.52-36.15.86.14,1.53.77,2.13,1.37,4.21-5.61,15.02.06,20.27,3.14,7.27,5.26,13.92,11.19,19.93,17.8.31.11,6.26-1.35,6.43-1.63,1.16-1.91-25.29-30.9-28.59-34.22-4.52-3.91-10.78-7.04-16.54-4.08l-2.5-.94c-3.37,4.93-7.26,9.68-11.69,14.24l-2.28-.28c-2.73,2.74-3.82.03-1.99-2.99-.64-2.82.84-5.86,4.42-9.14,2.8-3.37,9.63-11.45,13.53-7.82,4.27-6.09,15.73-.2,20.9,3.52,12.38,12.02,23.71,25.16,34,39.42l4.38.1c-9.86-12.6-19.2-25.45-28.04-38.55-6.72-8.85-17.22-21.49-28.99-14.99l-2.26-.47c-.34.86-.67.86-1,0-3.13,1.99-4.8-.64-1.99-2.99-1.54-2.89,5.87-7.99,7.98-4.99,1-3.65,6.26-2.29,9.31-1.43,10.42,2.93,18.53,12.97,24.97,21.16,9.9,16.43,21.32,31.27,34.26,44.52-14.62-18.83-27.9-38.47-39.84-58.93-5.32-7.21-14.06-18.63-24-13.82l-1.72-1.46c-7.31,6.51-14,13.43-20.44,20.85l-1.5.09c.1.75.1,1.44-.22,1.89-7.32,10.28-15.04,20.36-22.74,30.36-3.31,5.09-7.29,7.97-11.94,8.64l-2.26.57c-4.23,1.45-5.8.93-4.73-1.57Z"/>
    <path class="cls-45" d="M26.34,265.96c22.83-14.69,33.31-44.35,53.33-60.86,31.95-26.34,53.03,31.84,67.36,51.43,31.05-.76,43.68-37.25,58.41-59.31,26.51-39.7,48.92-16.85,69.04,12.57,13.75,20.11,24.77,42.33,39.23,62.04,27.97-7.69,37.61-64.78,73.03-48.64,19.55,8.9,38.5,37.78,60.79,50.91,4.05,2.39,10.16,6.83,12.08,8.32.93,41.6,2.59,85.1-.4,125.69-1.87,25.43-21.58,47.75-47.37,50.37H48.74c-3.39.32-6.32-1.19-9.43-2.04-1.26-2.73.49-2.99,2.9-3.17,45.36,1.37,91.05.88,137.08-1.47l16.39,1.7c.35-1.05.92-1.75,2.2-2.05,2.43-2.08,8.5.65,10.97,1.99,1.18-.82,2.46-1.7,3.93-1.83,7.44-.66,26.75-1.91,33.02-.47.71.16,1.33.68,1.94,1.3l14.88-1.42c44.79-.2,88.59.41,131.38,1.83,9.15-.09,18.31-.64,27.27-2.41.4-3.66,6.72-4.81,9.97-4.99-.98-3.28,3.12-4.89,5.98-4.99l-.52-2.25c.87-.25,7.3-7.54,6.53-7.62l-13.37,1.82c-15.69.04-5.96-9.56,4.25-8.33l13.57-.42c4.49-11.31,4-11.79-8.41-12.08-15.06.77-29.68,4.41-43.85,10.94l-3.07-.99c-3.58,2.22-3.66-4.01,1-3.99,2.84-3.73,10.59-6.71,15.46-8.39,5.86-2.01,11.78-3.77,17.95-4.61,7.91-1.07,21.18-2.11,26.43,4.02-3.15-1.6-3.14-12.35,0-13.96l-3.07,1.26c-29.84-11.86-52.88,2.1-77.57,17.94-4.24,3.26-8.28,4.51-12.11,3.74-.34.68-.72,1.33-1.2,1.9-5.13,6.11-40.65,9.13-49.67,6.08-2.19.94-5.54.79-7.98,0-1.13,2.55-1.86,2.55-2.99,0-2.91.61-2.95-4.22-1.2-4.77,9.74.69,19.45.61,29.13-.22l2.85-2.16c19.65-.36,36.23-9.91,52.4-19.46l5.59-1.32c-.1-.47-.18-.95-.18-1.42,0-.91,13.56-7.47,15.85-8.32l2.28.77,2.61-2.75c15.27-4.39,29.57-2.66,43.86,2.48.61-.08.89-6.91.35-7.63-3.31-4.43-40.58-12.18-46.42-5.82-3.47,2.07-6.6,2.65-9.38,1.75-2.21,3.22-5.51,5.81-9.92,7.76l-13.74,9.43-3.27-.23-1.51,3.35c-26.97,19.99-53.3,26.43-86.27,18.81-.31-1.09-.95-1.86-1.98-2.22-3.41-.52-8.45-4.69-2.99-4.99l3.69-1.18c38.09,9.8,69.59-3.55,98.18-28.17,4.19-3.86,8.46-5.71,12.82-5.55,3.57-6.17,14.7-7.99,21.76-8.77,13.03-1.43,26.07,1.7,38.05,6.69,5.06-6.43-12.07-12.03-16.65-13.32-18.02-5.09-31.19-4.82-47.54,5.59l-3.61-.17-1.54,3.33c-11.09,8.08-21.98,16.43-32.67,25.07-56.8,42.88-123.22-1.79-160.57-48.61-10.83-12.59-23.21-19.52-37.47-27.11-.52-.28-.78-1.06-.96-1.98-3.08,0-5.13-.86-6.15-2.56-7.99.44-16.08,1.25-24.25,2.86l-1.68-1.87c-1.47,3.22-3.42,1.84-1.99-1-2.11-2.05.62-4.65,2.99-2.99,1.7-5.04,10.8-5.55,15.81-5.55,25.47.02,54.81,28.65,71.06,46.72l-.11,2.71,2.16.27c1.31,2.98,3.08,4.42,5.31,4.32,23.53,24.5,46.91,40.9,81.6,43.49,26.03,1.94,41.67-9.72,61.23-24.94l3.29-.2c2.52-5.79,10.48-10.91,16.08-14.51,3.47-3.31,7.09-4.79,10.85-4.44l1.7-3.13c21.73-12.33,43.64-6.26,64.09,3.66,1.54-3.97-2.41-6.33-5.71-8.18-20.59-11.56-42.7-13.38-63.2-.34l-3.86.02-1.24,3.2c-7.4,5.53-14.53,11.41-21.37,17.64l-3.32.11c-.62.91-.81,1.93-.65,3.04-17.61,13.7-35.6,27.24-58.94,27.26-33.33.03-57.18-21.41-78.43-44.67l-.6-3.59-3.02-.35c-6.69-7.74-13.62-15.61-20.79-23.59-17.51-19.84-43.4-40.34-70.38-27.22l-2.55-.69c-.66,1.65-1.66,2.64-2.99,2.99l-1.31,2.09c-8.35,2.89-15.67,8.22-21.96,16-5.69,7.13-19.31,6.68-8.64-2.14-1.73-1.32-.73-2.65,2.99-3.99l-.69-2.37c4.36-5.67,9.43-10.71,14.64-15.42-8.69-4.86-19.11-6.78-27.5-.36-.71-.93-1.5-1.3-2.4-.8-1.6,2.6-12.1,14.23-14.55,14.69-.41.08-.9-.26-1.41-.72-2.36-2.6.88-6.02,3.99-5.98-.75-4.22,5.78-9.6,9.25-12.21,6.09-4.59,17.39-9.21,23.66-3.74.22-.83.9-1.93,1.45-1.73,4.35,1.63,8.45,3.51,12.6,5.51.53-.04,8.02-6.17,8.26-6.64.79-1.58-22.16-22.15-28.57-19.12l-1.71-1.95c-1.66,1.98-3.94,3.52-6.83,4.6-9.74,9.42-19.11,19.33-28.12,29.72-3.22,3.39-6.53,5.24-9.93,5.57-6.69,1.95-.54-7.26,3.99-5.98l.25-3.12c4.61-5.75,31.02-37.07,36.52-36.15.86.14,1.53.77,2.13,1.37,4.21-5.61,15.02.06,20.27,3.14,7.27,5.26,13.92,11.19,19.93,17.8.31.11,6.26-1.35,6.43-1.63,1.16-1.91-25.29-30.9-28.59-34.22-4.52-3.91-10.78-7.04-16.54-4.08l-2.5-.94c-3.37,4.93-7.26,9.68-11.69,14.24l-2.28-.28c-2.73,2.74-3.82.03-1.99-2.99-.64-2.82.84-5.86,4.42-9.14,2.8-3.37,9.63-11.45,13.53-7.82,4.27-6.09,15.73-.2,20.9,3.52,12.38,12.02,23.71,25.16,34,39.42l4.38.1c-9.86-12.6-19.2-25.45-28.04-38.55-6.72-8.85-17.22-21.49-28.99-14.99l-2.26-.47c-.34.86-.67.86-1,0-3.13,1.99-4.8-.64-1.99-2.99-1.54-2.89,5.87-7.99,7.98-4.99,1-3.65,6.26-2.29,9.31-1.43,10.42,2.93,18.53,12.97,24.97,21.16,9.9,16.43,21.32,31.27,34.26,44.52-14.62-18.83-27.9-38.47-39.84-58.93-5.32-7.21-14.06-18.63-24-13.82l-1.72-1.46c-7.31,6.51-14,13.43-20.44,20.85l-1.5.09c.1.75.1,1.44-.22,1.89-7.32,10.28-15.04,20.36-22.74,30.36-3.31,5.09-7.29,7.97-11.94,8.64l-2.26.57c-4.23,1.45-5.8.93-4.73-1.57Z"/>
    <path class="cls-45" d="M25.79,265.96c22.83-14.69,33.31-44.35,53.33-60.86,31.95-26.34,53.03,31.84,67.36,51.43,31.05-.76,43.68-37.25,58.41-59.31,26.51-39.7,48.92-16.85,69.04,12.57,13.75,20.11,24.77,42.33,39.23,62.04,27.97-7.69,37.61-64.78,73.03-48.64,19.55,8.9,38.5,37.78,60.79,50.91,4.05,2.39,10.16,6.83,12.08,8.32.93,41.6,2.59,85.1-.4,125.69-1.87,25.43-21.58,47.75-47.37,50.37H48.18c-3.39.32-6.32-1.19-9.43-2.04-1.26-2.73.49-2.99,2.9-3.17,45.36,1.37,91.05.88,137.08-1.47l16.39,1.7c.35-1.05.92-1.75,2.2-2.05,2.43-2.08,8.5.65,10.97,1.99,1.18-.82,2.46-1.7,3.93-1.83,7.44-.66,26.75-1.91,33.02-.47.71.16,1.33.68,1.94,1.3l14.88-1.42c44.79-.2,88.59.41,131.38,1.83,9.15-.09,18.31-.64,27.27-2.41.4-3.66,6.72-4.81,9.97-4.99-.98-3.28,3.12-4.89,5.98-4.99l-.52-2.25c.87-.25,7.3-7.54,6.53-7.62l-13.37,1.82c-15.69.04-5.96-9.56,4.25-8.33l13.57-.42c4.49-11.31,4-11.79-8.41-12.08-15.06.77-29.68,4.41-43.85,10.94l-3.07-.99c-3.58,2.22-3.66-4.01,1-3.99,2.84-3.73,10.59-6.71,15.46-8.39,5.86-2.01,11.78-3.77,17.95-4.61,7.91-1.07,21.18-2.11,26.43,4.02-3.15-1.6-3.14-12.35,0-13.96l-3.07,1.26c-29.84-11.86-52.88,2.1-77.57,17.94-4.24,3.26-8.28,4.51-12.11,3.74-.34.68-.72,1.33-1.2,1.9-5.13,6.11-40.65,9.13-49.67,6.08-2.19.94-5.54.79-7.98,0-1.13,2.55-1.86,2.55-2.99,0-2.91.61-2.95-4.22-1.2-4.77,9.74.69,19.45.61,29.13-.22l2.85-2.16c19.65-.36,36.23-9.91,52.4-19.46l5.59-1.32c-.1-.47-.18-.95-.18-1.42,0-.91,13.56-7.47,15.85-8.32l2.28.77,2.61-2.75c15.27-4.39,29.57-2.66,43.86,2.48.61-.08.89-6.91.35-7.63-3.31-4.43-40.58-12.18-46.42-5.82-3.47,2.07-6.6,2.65-9.38,1.75-2.21,3.22-5.51,5.81-9.92,7.76l-13.74,9.43-3.27-.23-1.51,3.35c-26.97,19.99-53.3,26.43-86.27,18.81-.31-1.09-.95-1.86-1.98-2.22-3.41-.52-8.45-4.69-2.99-4.99l3.69-1.18c38.09,9.8,69.59-3.55,98.18-28.17,4.19-3.86,8.46-5.71,12.82-5.55,3.57-6.17,14.7-7.99,21.76-8.77,13.03-1.43,26.07,1.7,38.05,6.69,5.06-6.43-12.07-12.03-16.65-13.32-18.02-5.09-31.19-4.82-47.54,5.59l-3.61-.17-1.54,3.33c-11.09,8.08-21.98,16.43-32.67,25.07-56.8,42.88-123.22-1.79-160.57-48.61-10.83-12.59-23.21-19.52-37.47-27.11-.52-.28-.78-1.06-.96-1.98-3.08,0-5.13-.86-6.15-2.56-7.99.44-16.08,1.25-24.25,2.86l-1.68-1.87c-1.47,3.22-3.42,1.84-1.99-1-2.11-2.05.62-4.65,2.99-2.99,1.7-5.04,10.8-5.55,15.81-5.55,25.47.02,54.81,28.65,71.06,46.72l-.11,2.71,2.16.27c1.31,2.98,3.08,4.42,5.31,4.32,23.53,24.5,46.91,40.9,81.6,43.49,26.03,1.94,41.67-9.72,61.23-24.94l3.29-.2c2.52-5.79,10.48-10.91,16.08-14.51,3.47-3.31,7.09-4.79,10.85-4.44l1.7-3.13c21.73-12.33,43.64-6.26,64.09,3.66,1.54-3.97-2.41-6.33-5.71-8.18-20.59-11.56-42.7-13.38-63.2-.34l-3.86.02-1.24,3.2c-7.4,5.53-14.53,11.41-21.37,17.64l-3.32.11c-.62.91-.81,1.93-.65,3.04-17.61,13.7-35.6,27.24-58.94,27.26-33.33.03-57.18-21.41-78.43-44.67l-.6-3.59-3.02-.35c-6.69-7.74-13.62-15.61-20.79-23.59-17.51-19.84-43.4-40.34-70.38-27.22l-2.55-.69c-.66,1.65-1.66,2.64-2.99,2.99l-1.31,2.09c-8.35,2.89-15.67,8.22-21.96,16-5.69,7.13-19.31,6.68-8.64-2.14-1.73-1.32-.73-2.65,2.99-3.99l-.69-2.37c4.36-5.67,9.43-10.71,14.64-15.42-8.69-4.86-19.11-6.78-27.5-.36-.71-.93-1.5-1.3-2.4-.8-1.6,2.6-12.1,14.23-14.55,14.69-.41.08-.9-.26-1.41-.72-2.36-2.6.88-6.02,3.99-5.98-.75-4.22,5.78-9.6,9.25-12.21,6.09-4.59,17.39-9.21,23.66-3.74.22-.83.9-1.93,1.45-1.73,4.35,1.63,8.45,3.51,12.6,5.51.53-.04,8.02-6.17,8.26-6.64.79-1.58-22.16-22.15-28.57-19.12l-1.71-1.95c-1.66,1.98-3.94,3.52-6.83,4.6-9.74,9.42-19.11,19.33-28.12,29.72-3.22,3.39-6.53,5.24-9.93,5.57-6.69,1.95-.54-7.26,3.99-5.98l.25-3.12c4.61-5.75,31.02-37.07,36.52-36.15.86.14,1.53.77,2.13,1.37,4.21-5.61,15.02.06,20.27,3.14,7.27,5.26,13.92,11.19,19.93,17.8.31.11,6.26-1.35,6.43-1.63,1.16-1.91-25.29-30.9-28.59-34.22-4.52-3.91-10.78-7.04-16.54-4.08l-2.5-.94c-3.37,4.93-7.26,9.68-11.69,14.24l-2.28-.28c-2.73,2.74-3.82.03-1.99-2.99-.64-2.82.84-5.86,4.42-9.14,2.8-3.37,9.63-11.45,13.53-7.82,4.27-6.09,15.73-.2,20.9,3.52,12.38,12.02,23.71,25.16,34,39.42l4.38.1c-9.86-12.6-19.2-25.45-28.04-38.55-6.72-8.85-17.22-21.49-28.99-14.99l-2.26-.47c-.34.86-.67.86-1,0-3.13,1.99-4.8-.64-1.99-2.99-1.54-2.89,5.87-7.99,7.98-4.99,1-3.65,6.26-2.29,9.31-1.43,10.42,2.93,18.53,12.97,24.97,21.16,9.9,16.43,21.32,31.27,34.26,44.52-14.62-18.83-27.9-38.47-39.84-58.93-5.32-7.21-14.06-18.63-24-13.82l-1.72-1.46c-7.31,6.51-14,13.43-20.44,20.85l-1.5.09c.1.75.1,1.44-.22,1.89-7.32,10.28-15.04,20.36-22.74,30.36-3.31,5.09-7.29,7.97-11.94,8.64l-2.26.57c-4.23,1.45-5.8.93-4.73-1.57Z"/>
    <path class="cls-45" d="M25.58,266.91c22.83-14.69,33.31-44.35,53.33-60.86,31.95-26.34,53.03,31.84,67.36,51.43,31.05-.76,43.68-37.25,58.41-59.31,26.51-39.7,48.92-16.85,69.04,12.57,13.75,20.11,24.77,42.33,39.23,62.04,27.97-7.69,37.61-64.78,73.03-48.64,19.55,8.9,38.5,37.78,60.79,50.91,4.05,2.39,10.16,6.83,12.08,8.32.93,41.6,2.59,85.1-.4,125.69-1.87,25.43-21.58,47.75-47.37,50.37H47.97c-3.39.32-6.32-1.19-9.43-2.04-1.26-2.73.49-2.99,2.9-3.17,45.36,1.37,91.05.88,137.08-1.47l16.39,1.7c.35-1.05.92-1.75,2.2-2.05,2.43-2.08,8.5.65,10.97,1.99,1.18-.82,2.46-1.7,3.93-1.83,7.44-.66,26.75-1.91,33.02-.47.71.16,1.33.68,1.94,1.3l14.88-1.42c44.79-.2,88.59.41,131.38,1.83,9.15-.09,18.31-.64,27.27-2.41.4-3.66,6.72-4.81,9.97-4.99-.98-3.28,3.12-4.89,5.98-4.99l-.52-2.25c.87-.25,7.3-7.54,6.53-7.62l-13.37,1.82c-15.69.04-5.96-9.56,4.25-8.33l13.57-.42c4.49-11.31,4-11.79-8.41-12.08-15.06.77-29.68,4.41-43.85,10.94l-3.07-.99c-3.58,2.22-3.66-4.01,1-3.99,2.84-3.73,10.59-6.71,15.46-8.39,5.86-2.01,11.78-3.77,17.95-4.61,7.91-1.07,21.18-2.11,26.43,4.02-3.15-1.6-3.14-12.35,0-13.96l-3.07,1.26c-29.84-11.86-52.88,2.1-77.57,17.94-4.24,3.26-8.28,4.51-12.11,3.74-.34.68-.72,1.33-1.2,1.9-5.13,6.11-40.65,9.13-49.67,6.08-2.19.94-5.54.79-7.98,0-1.13,2.55-1.86,2.55-2.99,0-2.91.61-2.95-4.22-1.2-4.77,9.74.69,19.45.61,29.13-.22l2.85-2.16c19.65-.36,36.23-9.91,52.4-19.46l5.59-1.32c-.1-.47-.18-.95-.18-1.42,0-.91,13.56-7.47,15.85-8.32l2.28.77,2.61-2.75c15.27-4.39,29.57-2.66,43.86,2.48.61-.08.89-6.91.35-7.63-3.31-4.43-40.58-12.18-46.42-5.82-3.47,2.07-6.6,2.65-9.38,1.75-2.21,3.22-5.51,5.81-9.92,7.76l-13.74,9.43-3.27-.23-1.51,3.35c-26.97,19.99-53.3,26.43-86.27,18.81-.31-1.09-.95-1.86-1.98-2.22-3.41-.52-8.45-4.69-2.99-4.99l3.69-1.18c38.09,9.8,69.59-3.55,98.18-28.17,4.19-3.86,8.46-5.71,12.82-5.55,3.57-6.17,14.7-7.99,21.76-8.77,13.03-1.43,26.07,1.7,38.05,6.69,5.06-6.43-12.07-12.03-16.65-13.32-18.02-5.09-31.19-4.82-47.54,5.59l-3.61-.17-1.54,3.33c-11.09,8.08-21.98,16.43-32.67,25.07-56.8,42.88-123.22-1.79-160.57-48.61-10.83-12.59-23.21-19.52-37.47-27.11-.52-.28-.78-1.06-.96-1.98-3.08,0-5.13-.86-6.15-2.56-7.99.44-16.08,1.25-24.25,2.86l-1.68-1.87c-1.47,3.22-3.42,1.84-1.99-1-2.11-2.05.62-4.65,2.99-2.99,1.7-5.04,10.8-5.55,15.81-5.55,25.47.02,54.81,28.65,71.06,46.72l-.11,2.71,2.16.27c1.31,2.98,3.08,4.42,5.31,4.32,23.53,24.5,46.91,40.9,81.6,43.49,26.03,1.94,41.67-9.72,61.23-24.94l3.29-.2c2.52-5.79,10.48-10.91,16.08-14.51,3.47-3.31,7.09-4.79,10.85-4.44l1.7-3.13c21.73-12.33,43.64-6.26,64.09,3.66,1.54-3.97-2.41-6.33-5.71-8.18-20.59-11.56-42.7-13.38-63.2-.34l-3.86.02-1.24,3.2c-7.4,5.53-14.53,11.41-21.37,17.64l-3.32.11c-.62.91-.81,1.93-.65,3.04-17.61,13.7-35.6,27.24-58.94,27.26-33.33.03-57.18-21.41-78.43-44.67l-.6-3.59-3.02-.35c-6.69-7.74-13.62-15.61-20.79-23.59-17.51-19.84-43.4-40.34-70.38-27.22l-2.55-.69c-.66,1.65-1.66,2.64-2.99,2.99l-1.31,2.09c-8.35,2.89-15.67,8.22-21.96,16-5.69,7.13-19.31,6.68-8.64-2.14-1.73-1.32-.73-2.65,2.99-3.99l-.69-2.37c4.36-5.67,9.43-10.71,14.64-15.42-8.69-4.86-19.11-6.78-27.5-.36-.71-.93-1.5-1.3-2.4-.8-1.6,2.6-12.1,14.23-14.55,14.69-.41.08-.9-.26-1.41-.72-2.36-2.6.88-6.02,3.99-5.98-.75-4.22,5.78-9.6,9.25-12.21,6.09-4.59,17.39-9.21,23.66-3.74.22-.83.9-1.93,1.45-1.73,4.35,1.63,8.45,3.51,12.6,5.51.53-.04,8.02-6.17,8.26-6.64.79-1.58-22.16-22.15-28.57-19.12l-1.71-1.95c-1.66,1.98-3.94,3.52-6.83,4.6-9.74,9.42-19.11,19.33-28.12,29.72-3.22,3.39-6.53,5.24-9.93,5.57-6.69,1.95-.54-7.26,3.99-5.98l.25-3.12c4.61-5.75,31.02-37.07,36.52-36.15.86.14,1.53.77,2.13,1.37,4.21-5.61,15.02.06,20.27,3.14,7.27,5.26,13.92,11.19,19.93,17.8.31.11,6.26-1.35,6.43-1.63,1.16-1.91-25.29-30.9-28.59-34.22-4.52-3.91-10.78-7.04-16.54-4.08l-2.5-.94c-3.37,4.93-7.26,9.68-11.69,14.24l-2.28-.28c-2.73,2.74-3.82.03-1.99-2.99-.64-2.82.84-5.86,4.42-9.14,2.8-3.37,9.63-11.45,13.53-7.82,4.27-6.09,15.73-.2,20.9,3.52,12.38,12.02,23.71,25.16,34,39.42l4.38.1c-9.86-12.6-19.2-25.45-28.04-38.55-6.72-8.85-17.22-21.49-28.99-14.99l-2.26-.47c-.34.86-.67.86-1,0-3.13,1.99-4.8-.64-1.99-2.99-1.54-2.89,5.87-7.99,7.98-4.99,1-3.65,6.26-2.29,9.31-1.43,10.42,2.93,18.53,12.97,24.97,21.16,9.9,16.43,21.32,31.27,34.26,44.52-14.62-18.83-27.9-38.47-39.84-58.93-5.32-7.21-14.06-18.63-24-13.82l-1.72-1.46c-7.31,6.51-14,13.43-20.44,20.85l-1.5.09c.1.75.1,1.44-.22,1.89-7.32,10.28-15.04,20.36-22.74,30.36-3.31,5.09-7.29,7.97-11.94,8.64l-2.26.57c-4.23,1.45-5.8.93-4.73-1.57Z"/>
    <path class="cls-66" d="M101.23,400.51c1.77-.3,2.63.83,2.59,3.38,4.89-1.49,6.63.98,7.44,5.42,3.18.85,9.19,3.08,4.93,6.16l-1.73,2.26c-13.52,4.25-26.3,10.62-38.33,19.11-5.65,2.92-18.97,9.35-25.01,7.86-.49-.12-.89-.66-1.25-1.31-.09.49-.22.95-.47,1.33-.7,1.07-22.79,1.51-24.96-1.33,24.96,7.99,50.46-3.85,71.04-18.08,22.51-14.76,47.29-7.59,68.29,5.87,10.24,6.89,20.87,13.05,31.89,18.5l1.32,2.68c-.45,1.39,1.42,3.89-1.5,4.03-5,.24-12.47-1.86-17.79-1.67-20.31.74-40.57,1.42-60.95,1.67-24.3.3-48.87,1.96-72.81-.1-1.58-.14-4.54-.48-5.51,1.05-8.14-2.22-10.52-4.15-16.95-8.98l-1.31-2.61c-4.57-3.39-5.09-4.76-4.67-10.36l1.6-1.28c29.28,1.52,53.47-7.73,73.84-28.69,3.29-3.57,6.73-5.22,10.33-4.94Z"/>
    <path class="cls-26" d="M80.29,223.99l.1,1.57c-9.72,11.31-18.67,23.3-26.84,35.97-12.41,17.39-28.88,25.6-48.06,32.27,1.27,1.32,1.97,3.26,2.1,5.84l7.92-3.21c5.35-3.25,10.08-5.81,15.9-7.62l1.27-3.54c10.28-9.53,19.32-20.2,27.11-32.01l3.53-1.35c.01,1.46.56,2.56,1.99,2.99l.07,3.3c-11.22,17.55-20.91,29.26-39.06,39.46-5.57,3.13-14.85,8.18-20.86,7.1l-.51,2.66c2.86,1.95,4.7,9.39.51,11.3l-.59,2.78c3.71.88,3.93,9.49.59,11.18,2.01,1.34,2.88,2.4.61,3.42,2.33,2.89,2.38,10.72-.61,13.53,2.81.43,2.67,2.13,0,2.99,1.97,5.29,1.97,10.66,0,15.96,3.1,2.95,2.91,10.86,0,13.96,2.57.91,2.89,2.16-.02,2.44,2.94.35,2.54,5.32.02,6.54,1.18.16,2.12.71,2.01,1.97,13.61-2.23,26.42-8.72,37.57-16.67l2.31.75c1.61-1.1,2.82-1.28,3.62-.54,2.5-3.28,6.71-2.62,5.35,1.54-2.53,6.9-12.23,11.96-18.91,15.36-9.45,4.82-19.6,7.65-30.1,8.96-.09.78-.71,1.31-1.85,1.6,2.47,1.18,2.96,5.03.47,6.01-.39,1.49-.18,4.51,1.71,4.18.68,3.35.92,6.56.72,9.61,3.19,1.04,6.46,4.82,5.07,8.12,1.97.21,2.82,1.08,1.99,2.99,2.48,1.47,4.08,1.1,6.98,1,.35,4.73-6.6-1.17-5,5.3.23.95,5.74,2.5,4.01,6.66-12.75-9.57-18.87-20.5-21.84-36.51l.39-131.04c.72-1.51,13.61-7.03,16.48-8.46,3.05-1.52,5.86-4.39,8.96-5.5.07-.03.57.86,1.3.72,1.97-.37,2.51-3.2,5.68.27-3.7,5.65-9.26,10.01-16.69,13.06-21.16,10.06,6.7-1.71,12.73-6.44,14.58-13.02,27.3-28.03,38.15-45.02l1.71-.49c.46-3.1,6.82-10.48,9.97-7.98.01,1.46.56,2.56,1.99,2.99Z"/>
    <path class="cls-35" d="M246.83,450.37c2.88.08,2.7,2.34,0,2.99-12.67.09-25.99,1.77-38.89,1-16.19-6.41-32.24-14.91-48.16-25.49-12.4-7.12-26.18-12.89-40.74-11.73l-2.85-1.67c.24-4.02-5.26-3.18-6.48-4.99-2.14-3.15.92-6.91-7.48-3.99l-1-5.98c-.58-4.36,9.41-7.56,12.96-6.98,2.69-3.17,9.59-3.01,13.99-2.82,12.91.56,24.74,6.8,35.24,13.91l32.17,24.43c13.78,10.65,29.85,17.45,47.35,19.01.86,1.19,2.16,1.96,3.89,2.33Z"/>
    <path class="cls-90" d="M114.19,303.77c3.18,3.08,1.63,7.52-3.35,8.62-19.31,15.52-34.6,32.03-50.7,50.79-7.29,7.61-15.28,14.44-24.42,19.72-8.32,4.81-21.18,11.49-30.24,8.63-.41-3.46.06-6.51,0-8.98q2.46,1.46,0,0c-.11-4.73,0-9.72,0-13.96q1.86,1.93,0,0c0-5.31.02-10.65,0-15.96l1.36-1.56c24.47-3.35,43.88-13.47,62.46-28.6,4.89-3.24,9.21-4.15,12.96-2.74-1.08,1.8-2.21,3.76-1.99,5.98,12.66-3.25,19.48-21.58,33.9-21.94Z"/>
    <path class="cls-1" d="M143.11,312.75c39.62,11.32,57.66,49.68,89.44,72.62,24.89,17.96,61.35,29.31,91.31,18.88,22.19-7.72,38.74-27.48,58.6-39.63,1.29.63,2.27,1.71,2.92,3.24,4.36,1.51,4.78,3.89,5.05,6.73-18.6,9.79-34.8,27.44-55.09,34.17-18.53,6.14-40.75,5.43-59.6.74l-3.59,1.11-13.82-5.1c-15.02-8.58-30.18-16.39-45.48-23.43l.06-1.5c-3.23-.89-6.26-2.88-9.08-5.97-13.46-13.5-27.72-26.12-42.78-37.86-4.93-2.04-8.91-4.72-11.97-8.02-4.61-2.17-3.73-6.34-2.67-10.72-8.74,1.21-14.93-5.62-3.32-5.24Z"/>
    <path class="cls-16" d="M335.59,352.64c-3.24,2.54-6.71,5.6-9.97,7.98l-6.01,2.06c-9.51,1.62-39.93,1.62-49.46-.35-11.05-2.28-20.2-5.52-28.85-13.11-11.05-10.1-23.32-18.3-36.35-25.49-2.9-3.01-9.92-7.54-11.65-10.28-2.65-4.2-1.63-4.86-6.3-9.66.85-.66,1.87-1.29,2.86-1.02,12.1,3.35,22.65,6.09,35.07,7.75,9.28,4.4,16.59,11.66,21.93,21.77,10.48,13.42,29.66,18.29,46.09,19.25,12.85.75,25.76.54,38.63-.2,1.52-.14,2.85.31,4.02,1.32Z"/>
    <path class="cls-67" d="M340.58,345.66c-3.67,1.16-.37,3.54-1.4,5.05-.64.94-2.34.71-2.59.94-.98-.96-2.76-1.05-5.34-.29-27.56,1.63-64.87,3.6-84.41-19.09-10.15-19.23-23.29-24.51-44.4-25.71-3.84-.15-6.33-1.4-7.48-3.77,2.54.27,4.55-.69,4-3.49-.04-.21-3.24-1.25-4-1.5l1.84-1.97c10.9.71,21.54-1.08,31.92-5.36,7.24-1.84,10.29,1.74,14.4,6.82l13.91,21.42c17.68,24.9,54.54,25.43,82.45,25.74l1.08,1.22Z"/>
    <path class="cls-78" d="M359.53,418.46c18.54-7.51,39.31-26.09,59.36-27.91,11.73-1.06,22.25,2.07,33.39,4.97v13.96c-13.88-4.66-28.03-2.81-41.66,1.72-6.03,2.01-11.77,5.65-18.18,7.25l-2.97,1.58c.5,2.36.16,3.82-1.02,4.4.77,2.78-2.87,3.42-3.99,1-2.15.18-3.48-.15-3.99-1-7.05-.91-14.25-1.64-21.59-2.18-2.7-1.17-2.49-2.44.65-3.81Z"/>
    <path class="cls-77" d="M241.85,261.88c2.32,2.55,4.77,6.15,6.98,8.98.68,2.55,1.43,4.04,3.99,4.99,24.86,33.6,38.01,64.28,88.25,60.84l9.48,1.97c-30.75.08-73,3.15-92.58-25.58-2.33-3.42-9.05-14.75-10.13-18.29-2.66-4.18-5.22-8.52-3.05-13.5-3.82-2.22-6.32-6.48-7.5-12.78-13.23-7.07-6.14-13.07,4.57-6.63Z"/>
    <path class="cls-18" d="M241.85,261.88c-.6,2.07-11.94-3.51-9.96.48.74,1.51,5.27,2.58,7,4.97,2.03,2.82,2.36,8.89,3.88,10.85.9,1.16,3.57.58,4.02,2.25.33,1.22-1.01,3.16-.86,4.78.22,2.3,1.23,7.37,1.9,9.58-5.23-4.94-7.13-10.12-15.47-10.05-2.05.02-3.78.93-5.48,1.07l-5.5,1.63c-5-3.8-10.79-2.96-17.37,2.52l-6,2.01c7.27.45,14.43-.95,21.45-2.66.51,1.23,1.29,1.82,2.44,1.48,4.45-1.03,7.52-2.67,12.51-2.04,8.7,1.11,19.79,24.84,25.87,31.97,19.34,22.66,57.97,21.94,85.28,21.94-.91,2.6-2.73,2.71-4.99,2.98-21.02,2.5-63.88-3.15-79.32-18.91-6.04-6.17-19.36-33.03-25.1-34.73-8.3-2.47-17.31,4.71-24.82,5.69-5.17.68-11.1-.31-16.37.08-6.93-2.34-15.09-4-19.95-9.96,12.72,1.69,27.15.83,36.89-8.49,5.22-4.99,12.97-21.19,18.92-23.02,4.96-1.53,8.21,2.51,11,5.58Z"/>
    <path class="cls-83" d="M282.74,259.89c20.96,29.72,45.01,62.03,84.77,64.83-3.59,3.61-8.24,6.81-12.58,9.68l-24.32-2.71.78-2.08c3.69-.55,7.49-.29,11.19.08,5.31-.23,11.93,2.86,14.96-1.98-10.48-2.28-21.31-3.22-31.43-6.97-24.13-8.94-37.02-31.34-51.34-50.88l.63-1.72c-4.92-4.32-1.68-9.5,3.06-5.33l4.29-2.92Z"/>
    <path class="cls-8" d="M209.93,384.55l1.76.08c19.34,18.91,36.93,25.65,62.48,31.45.48.11.92.43,1.34.81.48.44.88.99,1.24,1.56,7.44-.95,15.16-.63,23.17.95,8.97-.47,17.54.21,25.7,2.04-8.98,2.29-19.15.38-28.42.99l.5,3.99c-.68.49-1.37.94-2.11,1.27s-1.4.61-2.07.6c-32-.78-64.09-7.8-88.02-30.29-12.85-13.8-26.51-25.55-40.28-37.33-.67-.57-.7-1.22-.15-2.07l3.35-.72c14.77,6.06,27.5,14.2,40.17,23.76,1.01.76,1.67,1.43,1.36,2.9Z"/>
    <path class="cls-92" d="M117.18,300.78c7.09-5.18,16.78-5.78,25.47-5.02,28.66,2.51,53.19,37.3,71.27,56.88,3.56,8.09-2.99,8.34-6.81,1.87l-2.17-.87c-19.91-19.82-54.29-59.49-86.76-43.88-4.18.68-3.42-6.92-1-8.98Z"/>
    <path class="cls-71" d="M276.75,250.91c1.09,2.49.55,4.21-.76,6.5,1.7-.82,3.28-.99,4.75-.52.69.98,1.3,2.01,1.99,2.99,1.12,2.79-2.68,4.45-4.62,4.91-1.82.43-1.56-4.07-3.35-1.91-1.79,2.16,3.95,5.34,3.99,7.46l-4-.49c-8.88-12.12-28.43-43.72-41.89-47.87l-4.94-.52c-6.57,2.3-7.67-14.11-4.04-17.43,8.89-4.58,14.02-.35,20.95,5.47,13.61,11.44,21.88,27.24,31.9,41.4Z"/>
    <path class="cls-48" d="M292.71,252.91c1.87,3.67,2.72,9.46-2.99,7.98-11.63-16.3-36.21-57.15-54.85-62.83-3.96-.83-7.98-.86-12.04-.11-1.12-6.76.57-11.7,5.06-14.85,5.2-1.35,7.62-1.64,12.96.5,18.8,7.56,40.55,51.77,51.86,69.31Z"/>
    <path class="cls-53" d="M436.32,441.4c-2.78,2.67-2.49,2.78-5.98,4.99-16.16,3.84-34.07,4.47-51.26,4.43-33.19-.79-66.36-1.81-99.52-3.07l-2.81-1.36c-1.3.86-2.29.86-2.99,0l1.11-2.03,28.85-.81c-8.63-1.05-17.38-1.66-26.26-1.84l-.71-2.3c2.07-.99,4.25-1.58,6.53-1.77,40.78,3.4,81.34,2.73,121.69-2.02l3.42.79c8.75-9.66,20.33-1.6,27.92,4.99Z"/>
    <path class="cls-5" d="M253.81,268.87c1.41-.94,2.9-.56,4.48,1.16,3.11-1.61,6.69-1.2,9.01,1.55,1.96,3.36,6.02,8.58,9.45,9.26,12.51,16.64,27.67,37,47.89,44.36,5.82,2.11,12.08,2.58,17.93,4.51-3.55.15-8.75,1.81-11.97,1.99-7.08.4-15.96-1.49-22.72-3.71-25.9-8.49-39.58-38.1-54.07-59.12Z"/>
    <path class="cls-54" d="M204.95,353.64l3.98-2.99c-1.37,7.43,4.51,10.71,4.99,1.99,23.69,25.65,48.78,50.04,87.16,45.77,18.31-2.04,37.29-16.71,51.47-27.82,2.05,2.07,4.04,4.07,5.98,5.98-24.37,17.99-35.24,29.93-69.18,26.8-37.74-3.49-59.51-24.96-84.4-49.74Z"/>
    <path class="cls-47" d="M391.44,422.45c19.47-7.02,38.52-16.15,59.73-9.88,1.12,1.33-1.81,12.94-3.05,13.69-2.05,1.26-21.22-.66-25.76,3.17.56,2.1,2.73,2.08,4.48,2.07,2.71,0,17.77-2.71,18.45-2.08-.96,5.02-5.54,8.66-8.97,11.96-5.71.2-11.44-7.31-16.62-7.72-1.74-.14-8.53,2.27-11.31,2.73-2.18-1.52-1.44-3.28,1-3.99-5.28-2.98-11.29-4.93-18.03-5.87l-.92-2.11c-1.93-.49-1.04-3.23,1-1.99Z"/>
    <path class="cls-29" d="M359.53,266.87c.68-.53,1.04-1.93,2.61-2.85,4.27-2.49,11.6-2.89,16.36-1.67,6.99,1.78,28.69,18.89,36.96,23.88,10.26,6.19,26.52,12.43,35.16,18.69,3.63,2.63,2.86,3.78,1.64,7.82-.51.36-3.94-1.13-4.95-1.53-21.71-8.71-45.9-26.78-66.29-33.43-5.84-1.91-11.69-2.36-17.5.05-5.24,2.49-6.23-7.71-3.99-10.97Z"/>
    <path class="cls-93" d="M360.52,259.89c-5.03.12-3.31-6.86-1-9.97,11.31-9.5,16.7-8.92,28.84-.41,17.59,12.33,30.78,25.11,50.28,36.49,5.79,3.38,19.43,6.22,13.14,14.76-12.95-6.89-26.26-13.34-38.73-21.09-14.84-9.23-34.14-30.15-52.53-19.77Z"/>
    <path class="cls-79" d="M319.64,364.61c-4.33,2.93-9.26,6.75-13.96,8.98-20.18,3.54-42,3.59-60.83-4.99-5.53-4.05-11.29-9.3-15.96-14.71-1.7-1.97-.4-5.1-5.97-3.25,2.75-5.09-3.85-8.49-6.96-12.48-2.01-2.57-2.75-4.78-5.01-7.46,2.9-1.32,6.11-.58,9.62,2.21,10.68,8.75,21.74,16.89,33.19,24.42,19.95,6.77,40.94,8.58,62.97,5.44l2.92,1.83Z"/>
    <path class="cls-21" d="M366.51,281.83c14-4.24,29.72,9.24,41.86,15.48,14.42,7.4,28.98,14.55,43.91,20.91,1.18,1.22,2.31,8.91-.51,8.5-4.71-.69-17.17-8.44-23.48-10.44-3.96-1.26-7.82-1.96-11.93-2.53-.78-1.26-.15-1.84,1.9-1.73-1.38.59-2.12.51-1.9-1.26-9.87-4.46-28.68-13.71-38.89-13.96-7.44.18-11.49-6.18-13.86-12.51l2.89-2.45Z"/>
    <path class="cls-46" d="M79.29,240.94c3.73-1.98,4.81-2.56,9.5-2.01,14.52,1.68,31.13,31.57,41.35,41.42.31,2.23-.33,1.17-1.51,1.45-2.17.51-7.27,2.29-8.73,1.89-1.83-.51-9.28-9.29-11.68-11.34-7.67-6.57-17.15-13.41-27.94-11.45-4.23-4.05-4.23-15.12-1-19.95Z"/>
    <path class="cls-52" d="M165.05,358.62l19.96,16.44c33.12,38.99,62.07,50.11,112.68,51.37,1,.02,2-.01,2.99,0,2.74.39,5.4.73,7.98,1,21.06.53,44.13.85,65.73-3.79l6.08.79c.46.32,3.45-.72,3.99,1-.18,2.93-7.97,5.75-10.86,6.32-13.9,2.72-26.09,3.37-40.28,3.17-6.61-.09-33.09-.72-36.8-3.02-.66-.41-1.25-.93-1.82-1.48-.81,2.79-4.27,2.93-4.99,0-3.55,1.17-6.81,1.25-9.97-1-7.98,2.78-19.8-.13-28.32-2.25-17.05-4.23-32.13-11.88-45.14-23.76-14.84-15.32-30.57-29.56-47.18-42.72-5.28-2.41-9.61-5.43-12.99-9.06,3.22-8.42,15.13,3.17,18.95,6.98Z"/>
    <path class="cls-49" d="M82.28,264.88c2.13,7.44,5.45,14.88,9.24,21.91l-1.26,2.02c-16.29-2.14-23.17,4.66-32.91,15.96-2.28,2.62-5.11,1.98-8.49-1.94-5.81,5.76-37.37,24.03-42.98,20.3-1.17-.78-1.34-3.19-.39-4.4l1.1-2.54c10.23-2.74,19.67-6.76,28.31-12.06.77.62,1.59.88,2.5.63,5.83-4.21,10.55-8.67,15.47-13.95,7.4-7.93,17.93-25.22,29.41-25.94Z"/>
    <path class="cls-31" d="M382.46,364.61c19.82-12.14,33.98-14.3,56.11-5.75,2.46.95,13.39,6.08,14.26,7.76,1.04,2.02-1.41,6.37-.56,8.95-20.62-9.28-41.24-11.83-61.83-.99-3.03.72-1.33-2.04-2.61-3.07-2.63-2.12-5.22-1.11-5.36-6.9Z"/>
    <path class="cls-86" d="M81.28,223.99c.82-.5,1.04-2.21,3.71-2.78,2.13-.45,5.61-.45,7.81-.26,13.39,1.18,28.87,28.72,36.53,39.25,5.02,6.91,10.43,13.47,15.78,20.12l-9.77-.71c-14.01-13.19-30.97-50.09-54.06-44.66-5.21.69-2.92-8.53,0-10.97Z"/>
    <path class="cls-63" d="M223.9,256.9c-8.58,8.76-9.62,21.06-23.94,26.42-10.74,4.02-29.44,4.29-36.89-5.47,9.63-1.27,19.07-.9,27.98-5.44,2.51-1.28,9.2-7.1,10.94-9.29s8.97-15.93,9.95-16.2c2.62-3.77,5.48-1.72,8.59,6.15,1.36,1.14,2.49,2.41,3.38,3.82Z"/>
    <path class="cls-17" d="M378.48,349.65c22.02-13.9,40.8-14.81,64.5-3.17,6.79,3.33,12.14,5.43,10.29,14.13-.85.91-18.27-7.41-21.14-8.28-17.39-5.25-30.99-3.17-46.68,5.29-4.84,1.76-11.66-3.85-6.98-7.98Z"/>
    <path class="cls-40" d="M89.26,206.04c5.19-2.05,6.13-2.77,11.96-.49,13.59,5.33,29.08,37.66,37.5,50.26,6.54,9.8,14.17,18.72,21.35,28-4.91,3.77-20.51-17.26-23.35-21.02-10.87-14.39-29.01-50.89-50.45-46.79-5.65-.65-.2-7.8,2.99-9.97Z"/>
    <path class="cls-85" d="M367.51,227.98c14.47-4.24,23.31,5.01,33.11,14.02,12.88,11.84,24.05,26.57,39.39,35.65,3.2,1.9,13.98,5.23,13.27,8.64-.23,1.12-1.58,1.66-2.99,1.04-10.7-4.76-26.54-15.57-36.22-22.64-15.13-11.05-30.76-32.35-51.55-23.75-2.61-4.29.63-10.67,4.99-12.96Z"/>
    <path class="cls-6" d="M85.27,315.74c-6.36,2.63-12.69,5.46-18.99,8.49l-2.95-.51-1.64-1.42c1.16-5.69-2.76-6.31-7.35-5.57l-.98-.98c.23-3.22,15.26-18.24,16.52-18.28.88-.03.27,1.41-.56-.67,7.27-4.87,10.98-6.21,20.2-4.75,1.88.3,10.44,3.43,11.25,4.71,1.92,3.02-3.46,5.19-5.56,7.49-3.01,3.31-7.35,8.05-9.94,11.5Z"/>
    <path class="cls-4" d="M115.19,312.75c.07.96,1.22,1.05,1.99,1,1.53,3.73,2.2,7.39,1.99,10.97l-1.24,2.25c-12.45,3.74-22.45,13.54-31.52,22.61-8.86,10.08-17.99,19.84-27.41,29.3l-2.66-.3c-4.02-4.49-2.84.65-4.51,1.01-1.14.24-2.93-2.19-4.47-2.01l1.34-3.66c17.33-18.03,34.77-35.93,52.33-53.71,4.34-4.62,9.05-7.1,14.15-7.46Z"/>
    <path class="cls-95" d="M368.5,394.52c3.24-1.76,5.38.04,6.41,5.39,2.84-3.76,8.49-5.31,11.54-1.4-23.12,13.16-32.32,21.61-60.83,22.94-16.84.78-32.35-.21-48.87-2.99-1.95-.81-2.25-2.22-1-3.99,0-1.57,1-1.57,2.99,0,6.28.51,13.05,2.61,19.41,3.03,31.75,2.09,45.37-6.79,70.35-22.98Z"/>
    <path class="cls-64" d="M80.29,260.89c-1.75.32-6.39,3.21-8,4.46-10.21,7.93-21.05,23.57-30.89,33.43-1.95-.22-4.1-1.18-6.45-2.89-2.82,3.37-26.7,15.09-28.74,13.81-1.6-1-1.59-3.39-.72-4.94,2.7-2.01,7.58-2.4,10.66-3.8,27.98-12.66,32.32-22.89,49.17-46.07,3.24-4.45,9.46-11.58,13.96-13.96-.1,6.7-.22,13.35,1,19.95Z"/>
    <path class="cls-42" d="M404.4,389.54c-2.63-.2-2.27-1.89-.37-3.5.21-1.11-7.42-4.79-9.31-4.67-2.55-1.39-1.33-2.47.7-3.8,10.84-5.01,17.97-7.2,30.41-5.98,3.62.36,25.62,6.92,26.98,8.93,1.01,1.49,1.11,10.37-1.12,10.9-.95.23-14.85-4.58-18.83-4.92-9.64-.83-19.24.44-28.46,3.03Z"/>
    <path class="cls-10" d="M276.75,280.83l-1,3.5c-2.09-3.6-5.68-5.99-8.63-8.88-.84-.82-.64-4.08-5-4.39-4.05-.29-1.97,3.76-8.3-2.21-4.55-4.28-8.37-11.8-13.96-14.96-6.88-4.8-11.44-16.08-13.75-24.29l.79-3.64c2.67-.8,3.85-.13,6.37,1.12,13.95,6.89,33.37,40.25,43.5,53.73Z"/>
    <path class="cls-58" d="M116.19,415.47c32.16-3.52,60.17,24.66,88.85,36.37,1.53.63,3.49-.1,2.9,2.53-4.11-.25-7.02-.43-10.97-1.99-30.95-12.24-55.78-45.57-93.42-29.09-24.12,10.56-29.95,22.69-60.68,24.09-5.79.26-15.38,1.66-18.44-3.98h25.43c24.98,0,44.48-25.53,66.32-27.92Z"/>
    <path class="cls-36" d="M57.35,304.77c-1.56,1.81-3,4.8-3.99,5.98.21.68.34,1.33.15,1.87-3.25,9.27-35.7,21.12-46.11,21.54l-1.9-1.47c-.07-2.74.34-5.82-.03-8.44-.58-4.04-2.79-.73.03-5.52-.43.61-.73,3.27,1.47,2.98,11.02-1.45,24.38-9.27,33.75-15.14,1.82-1.14,6.18-5.36,7.38-5.68,3.1-.83,5.04,5.44,9.27,3.87Z"/>
    <path class="cls-73" d="M194.97,302.77c11.2,3.48,27.22,3.05,36.61,8.77,8.95,5.46,13.09,16.67,20.22,23.66,17.87,17.49,55.8,14.85,79.34,14.5,2.7-.04,8.75-3.18,5.44,1.95-.35.31-.62.71-1,1-12.75,1.19-27.54,1.79-40.43,1.04-15.24-.89-33.98-4.94-45.35-15.49-10.03-9.31-12.05-22.32-27.26-26.59-5.76-1.62-11.52-1.06-16.88-2.07-6.32-1.19-12.53-3.97-18.68-5.75-1.93-1.99-4.71-3.33-5.98-5.97,4.91.77,9.31,3.53,13.96,4.98Z"/>
    <path class="cls-50" d="M298.69,262.88c-1.58,1.34-.92,2.01,1.99,1.99,18.79,26.38,42.24,49.86,75.79,54.86.03,1.68-3.27,1.96-4.36,1.9-40.06-2.19-61.58-31.58-82.4-60.75,3.24-2.5,3.49-3.67,2.99-7.98,1.98,3.07,4.32,7.57,5.98,9.97Z"/>
    <path class="cls-11" d="M430.33,446.38c-3.44,2.17-6.06,3.66-9.97,4.99l-16.03,2.01c-37.62-.01-75.41-.91-113.07-2.08-2.95-.09-5.78-.89-8.53-1.93-12.67.45-25.35.58-38.03.4-2.93-.46-3.34-2.18-.55-2.82,10.98.21,21.85.02,32.61-.58,46.95.4,103.13,6.22,148.59-.53,1.52-.23,4.01-1.39,5,.53Z"/>
    <path class="cls-32" d="M120.18,289.81c20.03-9.6,40.24-2.54,56.32,11,23.04,19.41,38.67,48.26,61.36,68.29.16.74-1.04.68-1.48.49-1.48-.66-14.72-14.5-16.98-16.93-24.44-26.29-53.81-71.61-96.22-59.85-3.64,1.14-5.84.21-2.99-2.99Z"/>
    <path class="cls-76" d="M82.28,264.88c14.15-.9,24.65,12.63,33.9,21.45-3.11.68-9.67,7.93-11.61,8.31-1.27.25-10.69-5.34-14.31-5.82-2.37-5.2-7.23-13.72-8.53-18.96-.48-1.94-.72-3.25.55-4.97Z"/>
    <path class="cls-54" d="M356.53,360.62c-9.12,7.15-17.37,15.6-27.4,21.97-23.16,14.71-51.64,16.59-74.33-.02,3.97.51,7.32,3.1,11.19,4.26,17.46,5.24,35.31,3.52,51.31-5.1,7.85-4.23,18.91-15.6,25.26-18.12,2.81-2.42,5.52-3.41,8.12-2.95,2.16-2.27,5.46-4.01,5.84-.04Z"/>
    <path class="cls-25" d="M117.18,300.78c-.3,3.51-1.47,5.92,1,8.98-1.18.57-2.34,2.61-2.99,2.99-31.43,18.37-41.58,44.09-67.82,64.82-8.66,6.84-29.52,17.41-40.4,17.96-2.62.13-1.26-2.09-1.49-4,22.78-3.13,38.95-14.85,54.37-30.9,18.61-19.37,27.61-32.66,49.85-49.88,1.16-.9,3.39-1.07,4.02-1.97,1.05-1.48.13-3.68.46-5.01.9-3.64,2.13-2.36,2.99-2.99Z"/>
    <path class="cls-82" d="M204.95,250.91c-7.14,12.51-13.78,21.38-29.43,22.93-5.36.53-19.67,2.03-20.43-4.97,12.2-.86,22.97-5.11,31.95-13.43,1.2-1.11,8.21-8.51,8.94-9.51,2.86-4.35,8.28,1.57,8.98,4.99Z"/>
    <path class="cls-24" d="M81.28,234.96c-7.69,1.81-13.64,11.34-17.95,16.95-10.09,13.14-18.49,26.79-31.91,36.9-3.16,2.14-5.81,2.99-9.22,1.17-4.69,3.09-9.55,4.46-14.99,5.46l-1.71-1.65c1.88-2.36,20.25-9.72,25.26-13.14,6.65-4.55,14.93-12.61,20.04-18.86,8.61-10.54,18.94-30.35,29.5-37.81.22-.15.75.15,1,0,.72,3.58-2.7,8.08,0,10.97Z"/>
    <path class="cls-51" d="M212.92,380.56c4.17,2.53,11.37,3.97,16,6.44,16.54,8.81,27.63,17.7,46.83,22.48l-.98.49,3.97,4.5c-.99-.08-2,.05-2.99,0-1.53,2.53-7.64.95-10.39.13-11.93-3.56-20.55-6.17-31.33-12.88-8.16-5.08-17.4-11.84-23.1-19.16-.86-.31-.85-.64,0-1-1.24-1.81-.58-2.14,1.99-1Z"/>
    <path class="cls-12" d="M400.42,334.69c-6.28,2-14.99-.23-8.98-6.98,14.97-4.92,28.19-3.06,42.56,2.82,2.92,1.19,16.89,8,18.26,9.66,1.6,1.93,1.34,6.34-.48,6.45-.86.05-12.72-6.42-15.48-7.44-15.41-5.69-20.74-4.01-35.89-4.5Z"/>
    <path class="cls-14" d="M325.62,360.62c-1.97,1.43-3.99,2.64-5.98,3.99-21.46.96-46.81,4-66.69-5.61-15.42-7.45-25.54-22.91-42.01-28.3-1.55-1.84-4.75-5.7-5.98-6.98,23.32,5.25,35.31,29.17,58.06,35.19,5.32,1.41,10.79,1.85,16.2,2.75l46.41-1.04Z"/>
    <path class="cls-65" d="M416.37,310.75c1.03.47,2.81.17,2.99,1.98l-2.99,1.01c-13.5-1.87-17.36.42-29.5,1.91-8.12,1-24.93-3.38-31.34-8.88,12.1-5.29,18.22-7.75,31.45-4.04,9.68,2.72,19.46,11.54,29.39,8.01Z"/>
    <path class="cls-81" d="M223.9,204.04c-.89,2.65.82,14.87,1.88,16.38.35.5,5.01.93,7.1,1.57-16.86-2.61-21.46,17.6-27.92,28.92-3.73-.45-5.86-6.99-8.98-4.99,4.5-6.2,8.8-17.25,13.16-24.24,3.97-6.36,8.22-14.28,14.77-17.65Z"/>
    <path class="cls-20" d="M420.36,451.37c-20.05,6.82-48.14,2.09-69.27,1.95-34.73-.22-69.54-.2-104.26.04v-2.99c11.92-.54,23.89-.87,35.9-1,28.52-.07,56.92,2.43,85.23,3.03,17.44.37,35.06.21,52.4-1.04Z"/>
    <path class="cls-41" d="M395.43,377.57c-2.08,3.15-.35,1.41,1.38,2.09,2.73,1.07,11.11,4.22,9.27,7.66-.1.19-1.09.19-1.32.56-.46.71-.29,1.61-.36,1.66-3.5,3.09-13.38,6.38-17.95,8.98-2.29.27-5.14-.46-7.29.02-.33.07-3.22,3.99-5.19,3.95-1.62-.04-.88-7.8-5.48-7.95,9.6-6.22,16.1-11.95,26.93-16.95Z"/>
    <path class="cls-68" d="M391.44,327.71c-1.29,6.84,3.65,6.81,8.98,6.98-17.41,4.12-30.26,15.26-43.88,25.93-3-1.53-4.35,1.96-4.67,2.01-1.86.3-3.74-.8-4.86-.63-.27.04-4.17,1.5-4.43,1.61,14.39-12.41,30.48-29.86,48.87-35.9Z"/>
    <path class="cls-2" d="M226.89,225.98c3.61,9.87,7.06,19.28,12.96,27.92-6.37-3.6-11.05-2.02-15.96,2.99-6.73.15-5.62-8.08-10.48-10.97l-.67,1.8c-.46.09-.75-.82-.82-.8,2.39-6.66,7.91-18.83,14.96-20.94Z"/>
    <path class="cls-44" d="M201.95,225.98c-12.53,20.29-22.48,40.81-50.87,38.89-1.24-4.22,4.17-3.12,7.96-4.51,16.06-5.87,27.99-22.35,36.92-36.38,1.76-1.53,5.34-.18,5.98,1.99Z"/>
    <path class="cls-28" d="M143.11,312.75l-4.98,1.48c1.63,3.03,10.11.7,10.96,1.52-1.28,4.82-2.48,8.07,0,12.96l-2.28,1.2c-6.35-2.33-13.07-2.76-19.78-2.85l-.88-1.34c-2.08,2.29-5.55,1.68-6.98-1-2.29-3.13-4.24-7.24-1.99-10.97,10.48-.68,14.12-4.37,25.93-1Z"/>
    <path class="cls-88" d="M41.39,298.78c-1.95,1.95-3.77,3.81-5.98,5.49l1.99.49c-2.66,1.92-5.01,3.95-8,5.47-3.97,2.01-23.18,7.46-23.92,8.49,2.42-4.11-3.4-11.44,0-13.96,0,2.07-.84,3.77,2.25,2.76,4.95-1.62,13.99-5.75,18.75-8.18,6.69-3.43,8.08-10.13,14.9-.56Z"/>
    <path class="cls-72" d="M366.51,281.83c-1.29,1.81-1.19,2.65-.06,4.52.92,1.53,5.4,7.44,6.66,8.35,1.48,1.07,2.93,1.17,4.38,2.09-4.85-.12-10.37.83-14.94,2.52-2.81,1.04-10.37,6.45-11.49,6.45-.98,0-10-5.32-10.46-6.49-.67-1.69.71-1.36,1.24-1.75,4.96-3.56,11.47-8.11,16.57-11.34,2.51-1.59,5.25-3.49,8.11-4.36Z"/>
    <path class="cls-38" d="M227.88,183.1c.62,1.92-1.61,1.83-1.91,2.77-1.16,3.62-.54,7.65-2.08,11.18,4.24-.22,7.04-.19,10.97,1.01-18.32-3.26-25.24,15.49-32.91,27.92-2.37.36-4.24-.48-5.98-1.99,7.71-12.1,16.99-37.02,31.91-40.89Z"/>
    <path class="cls-94" d="M367.51,227.98c-3.42,3.49-3.4,9.56-4.99,12.96-1.04,2.22-31.32,31.79-34.97,34.34-1.04.73-6.98,4.6-7.42,4.61-1.6.02-3.23-2.02-2.48-3.03.33-.45,7.55-4.4,9.44-6.03,12.26-10.57,27.24-38.99,40.42-42.85Z"/>
    <path class="cls-75" d="M359.53,418.46c-1.96,3.03-.61,1.58,1.52,1.96,3.34.6,18.65,1.45,19.44,2.03.21.16-.21,1.85,0,1.99-19.96,4.32-39.87,6.11-60.38,5.03-3.7-.19-8-1.63-11.43-2.04-.87-.28-.86-.62,0-1,17.76-.32,34.28-1.26,50.86-7.98Z"/>
    <path class="cls-15" d="M385.46,357.62c-9.41,5.07-18.32,12.6-26.93,18.95-3.77-.32-7.06-1.81-5.98-5.98,9.12-7.15,15.38-14.28,25.93-20.94-1.02,4.79,3.56,6.03,6.98,7.98Z"/>
    <path class="cls-33" d="M360.52,259.89c-4.65,2.62-11.41,11.5-15.94,15.47-2.62,2.3-15.2,13.38-17.94,12.01-1.27-.64-2.67-3.11-4.01-4.05,15.37-7.44,24.35-22.86,36.9-33.4.43,3.13-1.13,7.61,1,9.97Z"/>
    <path class="cls-89" d="M85.27,315.74c-.68.9-2.66,3.43-2.99,3.99-13.69,1.91-22.43,13.21-33.59,19.77-12.93,7.6-28.48,10.82-43.21,13.14,0-.82,0-2.09,0-2.99l2.95-2.64c18.99-3.86,38.62-10.12,52.43-23.99l2.45.7c6.35-4.15,14.45-6.95,21.94-7.98Z"/>
    <path class="cls-34" d="M68.32,228.97c-11.82,13.23-19.43,30.78-33.9,43.39-8.66,7.55-17.43,10.46-27.46,15.43-2.09.28-1.25-.16-1.48-1.49-.79-4.73.95-2.93,3.68-4.26,8.2-4.01,16.01-8.65,23.25-14.18,15.08-11.53,23.46-26.25,34.91-40.89,2.65-1.09,2.53-.07,1,1.99Z"/>
    <path class="cls-87" d="M359.53,266.87c1.65,3.12.43,11.47,3.99,10.97-6.36,2.65-23.24,18.3-26.61,18.82-1.79.28-4.76-4.28-6.28-5.36,4.62-3.75,9.92-6.56,14.42-10.5,5.26-4.61,8.71-9.48,14.49-13.94Z"/>
    <path class="cls-7" d="M356.53,340.67c17.44-14.13,31.08-25.23,55.34-22.93,14.22,1.35,27.45,9.72,40.4,14.97l-.49,1.97c-14.94-8.53-31.19-15.55-48.86-13.94-16.11,1.47-32.14,11.98-44.4,21.92-3.35,2-4.53,1.21-1.99-1.99Z"/>
    <path class="cls-84" d="M356.53,340.67c-.24,2.12-.12,2.23,1.99,1.99-6.4,5.19-12.03,11.66-18.47,16.93-17.85,14.61-35.53,28.3-60.31,25.94l18.75-3.68c23.29-7.66,39.6-26.24,58.04-41.19Z"/>
    <path class="cls-23" d="M69.31,296.79c3.31-.21,1.85.52.5,1.99-5.29,5.81-11.28,11.05-16.46,16.95l-.39,2.57c-12.6,11.43-28.55,17.13-45.02,19.83-2.08.06-2.9-1.76-2.46-5.44.56-.59,13.38-2.69,15.97-3.48,12.6-3.81,23.28-8.12,31.9-18.47,6.76-3.72,9.12-9.38,15.96-13.96Z"/>
    <path class="cls-69" d="M305.67,373.58c-16.3,7.73-46.12,5.79-60.83-4.99l24.45,4.97c8.95-.33,18.02.5,26.95.06,3.02-.15,6.97-2.39,9.43-.04Z"/>
    <path class="cls-30" d="M226.89,285.82c-1.81,1.71-10.53,4.68-4.99,4.99-10.19,2.36-16.2,3.89-27.41,2.98-1.2-.1-5.33-.37-5.49-1.97,4.57-.97,8.79-1.51,13.22-3.25,5.54-2.18,9.3-7.29,15.74-5.29,4.42,1.37,1.99,3.14,8.93,2.54Z"/>
    <path class="cls-22" d="M89.26,206.04c-.85,2.76-4.77,7.86-2.99,9.97-2.17.42-6,3.61-7.98,4.99-2.91,2.02-7.71,5.45-9.97,7.98l-1-1.99c6.69-8.56,11.34-16.76,21.94-20.94Z"/>
    <path class="cls-9" d="M120.18,289.81c.72,1.7.74,3.54,2.99,2.99-3.53.98-11.35,4.8-14.66,6.79-2.34,1.41-3.6,4-6.28,4.18l5.51-5.96c4.03-3.13,7.81-5.78,12.44-8Z"/>
    <path class="cls-83" d="M280.74,256.9c-2.66,1.35-2.05,7.59-4.48,2l-4.49,2.98,4.98-10.97c1.42,2,2.6,4.03,3.99,5.98Z"/>
    <path class="cls-48" d="M298.69,262.88c.26.38,1.29,1.01,1.99,1.99l-3.98,4.99c1.05-2.72-3.65-8.11,1.98-6.98Z"/>
    <path class="cls-52" d="M392.44,418.46l-2.99,2.5c-.33.73,1.88.64,1.99,1.49.01.11-1.29,1.01-1,1.99-.24,1.98-1.23,1.89-1.99,0,.23-1.23-.34-5.63,0-5.99.26-.28,3.04.24,3.99,0Z"/>
    <path class="cls-18" d="M252.82,275.85c-3.72.46-4.39-1.69-3.99-4.99,1.36,1.74,2.49,2.97,3.99,4.99Z"/>
    <path class="cls-8" d="M308.66,426.44v1c-2.51-.3-6.26.98-7.98-1,2.56.03,5.81.04,7.98,0Z"/>
    <path class="cls-74" d="M112.2,391.53c1.17.26,1.84.93,1.99,1.99-3.69,1.08-9.71,4.97-12.96,6.98-13.35,8.24-24.24,21.51-38.38,27.94-14.89,6.76-31.26,7.53-47.38,6.97-2.22-1.32-1.42-2.24-1.99-2.99l3.05-1.97c32.5,2.46,55.65-11.47,78.28-33.08l3.44.15c.61-4.34,10.38-8.54,13.96-5.98Z"/>
    <path class="cls-61" d="M95.24,377.57l-.76,3.09c-8.01,6.79-15.66,13.96-22.94,21.49l15.21-14.1,3.51-.5c4.1-2.09,13.38,5.72,7.98,9.97-10.19,6.24-18.53,16.27-28.61,22.75-16.97,10.92-36.33,12.38-56.16,12.15-7.68-10.04-8.29-15.28-7.98-27.92l1.67-1.44c19.33-2.5,36.92-10.38,51.28-23.63l3.9-.86c2.93-1.83,8.78-2.79,9.97,1,.76,1.25,1,2.2-.05,3.12,6.33-6.66,12.85-13.14,19.51-19.51.35-.33.89-.47,1.49-.57.65-.1,1.32-.07,2,0,3.44-1.61,5.46,7.25,4.52,9.37-2.49,1.68-3.44,3.09-4.52,5.59Z"/>
    <path class="cls-91" d="M63.33,323.72c-3.34,2.19-6.45,5.93-10.06,8.39-14.3,9.75-30.94,14.17-47.78,17.54-.04-5.61.13-11.84,0-16.95-.19.2.12,2.18,0,2.99,2.53,2.64,27.63-6.46,31.81-8.58,6.17-3.13,10.87-8.45,16.07-11.36,6.42-3.6,12.5.8,9.97,7.98Z"/>
    <path class="cls-70" d="M126.16,325.71c2.23,1.01,1.57,2.01-1.99,2.99-.31,2.66-.95,2.27-2.99,1l-2.01,2.44c-12.34,2.94-22.19,11.47-30.65,20.55l-22.17,24.76-4.01,1.12c-16.19,15.19-34.13,24.68-56.85,25.93.03-1.05-.51-2.5.58-3.1,20.12-2.83,35.13-9.73,50.29-22.83,16.04-13.86,42.43-51.08,62.83-53.85,2.81-.38,4.93.96,6.98,1Z"/>
    <path class="cls-62" d="M31.42,288.81c-5.49,4.13-17.85,11.99-24.43,12.98-2.19.33-1.21-.32-1.46-1.51-.43-2.08-1.07-5.19-.04-6.48l8.5-1.97c2.49-.3,6.09-3.65,8.12-3.8,2.14-.16,5.71,3.42,9.31.79Z"/>
    <path class="cls-27" d="M273.76,446.38c1,0,1.99,0,2.99,0-3.57,3.58-7.56,1.02-11.43.95-5.54-.1-13.82-.62-19.01.04-1.45.19-3.09.76-1.47,1.99h37.89c-11.54.03-23.95,1.8-35.9,1-11.21-.75-24.43-4.02-34.57-8.82-29.63-14.01-62.09-58.58-98.07-48.03-2.12.24-2.23.12-1.99-1.99,4.51-5.45,16.14-4.54,23.01-3.47,14.07,2.2,26.55,10.37,37.75,18.73,28.76,25.63,57.84,42.76,97.85,37.59l2.94,2.01Z"/>
    <path class="cls-13" d="M5.49,368.59c.64-.95,18.93-5.48,21.9-6.52,10.86-3.82,21.62-8.36,31.95-13.42,1.19,1.1-4.2,5.76-5.1,6.36-5.9,3.96-37.15,15.34-44.34,16.5-2.38.39-6.55.25-4.42-2.93Z"/>
    <path class="cls-80" d="M5.49,382.56c.44-.64,12.8-3.72,14.92-4.53,6.53-2.5,12.43-6.08,18.99-8.43-4.54,6.56-26.22,16.91-33.37,15.96-.96,0-.62-2.88-.54-3.01Z"/>
    <path class="cls-55" d="M149.1,328.7c21.37,7.67,33.52,24.38,49.34,38.92,3.37,3.1,11.32,11.01,14.49,12.94-.57.54-1.52.28-1.99,1l-1.78.4c-13.24-9.77-25.75-20.46-37.52-32.09-12.56-10.91-27.46-19.93-44.64-19.32l-2.82-1.84,1.99-2.99c9.39.15,13.88-.26,22.94,2.99Z"/>
    <path class="cls-56" d="M390.44,424.44c2.58.04,17.7,3.98,18.82,5.13.41.42.15,2.05.12,2.85-2.4,2.77-10.24,4.04-14.32,4.39-36.23,3.1-71.58,3.78-107.58,1.01l.23-2.41c3.87-1.13,6.2-2.8,6.98-4.99,24.24,1.95,53.19,4.83,77.04-.25,4-.85,8.92-3.75,12.71-4.74.96-.25,3.35-.93,3.99-1,.64-.07,1.35-.01,1.99,0Z"/>
    <path class="cls-28" d="M124.17,328.7c37.72-3.03,59.38,34.43,86.76,52.86-.14.22.13.7,0,1,1.66,1.95,1.52,2.17-1,1.99-12.26-10.08-30.72-19.91-44.88-25.93-.47-.2-1.7.02-2.92-.52-5.28-2.33-9.62-10.64-16.02-6.46-1.23,2.76-5.4.79-4.99-1.99-2.2-1.38-3.87-3.04-4.99-4.99-5.82-2.91-10.95-7.1-15.37-12.55l.41-2.41c.53-.09,1.27-.86,2.99-1Z"/>
    <path class="cls-59" d="M275.75,414.47c1,.24,2.3,1.57,3.98,1.01.13,2.19-3.86-.56-2.99,2.98-34.8-5.87-41.16-12.82-66.82-33.91-.03-.85.76-1.44,1-1.99,16.67,14.87,32.92,24.96,54.82,30.45,3.17.79,6.97.75,10,1.47Z"/>
    <path class="cls-3" d="M137.13,369.59c7.38-1.47,16.81,4.75,23.17,9,15.1,11.93,29.82,24.34,44.15,37.23,20.44,17.03,45.12,21.47,70.82,22.2l1.48,1.38c10.45,3.66,24.82-3.46,32.91,5.97l-35.9,1.01c-19.35-.17-33.74,1.76-52.4-4.95-38.09-13.68-64.61-62.89-109.16-49.9-5.29,1.54-9.23,3.09-13.96,5.98l-.53-4.95-7.45-5.02c1.22-5.9,10.35-11.84,15.86-14.96,10.08-5.71,17.42-6.29,28.78-4.91,1.16.14,1.89.68,2.23,1.91Z"/>
    <path class="cls-60" d="M141.12,367.6c.58-.35,1.18-.67,1.81-.86,9.96-3.01,46.16,30.78,54.45,38.58,24.59,24.31,55.51,29.62,88.68,28.79l1.66,1.3c1.04,1.65,3.78,1,5.47,1.01,33.94.36,67.86,4.48,101.62-1.13,4.88-.81,9.49-3.13,14.58-2.87-.05,1.43-.17,2.77-1,3.99-45.14,7.53-86.21,4.52-131.64,2.99-25.63-.86-41.44-1.72-63.74-15.54-23.26-14.41-49.78-49.09-75.88-54.27-2.14-2.18-.81-2.85,3.99-1.99Z"/>
    <path class="cls-19" d="M141.12,349.65c.93.26,3.67,1.48,4.99,1.99,29.28,11.48,48.29,42.95,74.1,60.03,18.7,12.37,37.64,15.78,59.53,17.76,3.07,1.87,6.39,2.2,9.97,1,1.64.14,3.34-.13,4.99,0l2.99,4.98c-3.31.06-6.66-.06-9.97,0-29.65.55-49.68.53-75.32-15.93-23.6-15.15-43.5-44.19-71.28-51.88l-2.79-.08c-14.71-1.86-27.97.17-39.79,10.13l-3.29-.07c-2.47-4.92,2.38-4.76,2.85-6.57.25-.98-1.65-7.19-2.85-8.39.99-5.33,9.47-10.02,14.53-12.52,8.95-4.43,23.56-7.31,31.35-.45Z"/>
    <path class="cls-56" d="M289.72,430.43l-1.33.02c-1.36,3.77-6.98,2.03-8.64-1.02,3.28.3,6.95.75,9.97,1Z"/>
    <path class="cls-1" d="M390.43,366.6c.16.13,1.24,3.77,1.01,3.98h-2.98s0-3.98,0-3.98c.61.06,1.78-.16,1.97,0Z"/>
    <path class="cls-39" d="M136.13,344.66c3.5.72,4.57,1.06,4.99,4.99-19.8-5.55-31.66.44-45.88,12.96-18.81,16.57-32.59,38.1-57.63,46.58-10.01,3.39-20.58,4.87-31.13,5.27v-3.98c22.93-.46,43.27-7.46,59.89-23.39,2.1-2.01,3.78-5.42,5.94-7.53l.14-2.93c8-9.44,22.88-23.1,33.71-28.87,8.6-4.58,21.31-9.01,29.98-3.1Z"/>
    <path class="cls-57" d="M141.12,367.6c-1.74-.17-3.47.16-3.99,1.99-21.78-4.32-32.06,4.59-46.87,17.95-11.5,10.37-22.62,22.78-36.93,29.39-13.89,6.41-29.72,7.8-44.85,7.51.14-.82-.22-2.68,0-2.96.79-.98,21.04-1.67,25.14-2.31,31.71-4.93,39.29-25.03,61.62-41.6,15.13-11.22,26.99-15.2,45.88-9.97Z"/>
    <path class="cls-37" d="M121.17,329.7l14.96,14.96c-27.23-5.62-46.42,17.89-63.83,34.91l-9.97-1c18.01-16.89,33.05-44.43,58.84-48.87Z"/>
  </g>
  <g>
    <path class="cls-66" d="M51.66,114.14h-.45l-1.48,6.48h-13.81V36.56h17.67v20.51l-.65,9.37h.45c4.41-4.27,10.47-6.8,16.27-6.8,14.85,0,23.98,11.9,23.98,30.16,0,20.53-12.48,32.25-25.76,32.25-5.5,0-11.33-2.74-16.21-7.92ZM75.55,90.1c0-10.68-3.5-15.99-10.98-15.99-3.77,0-7.26,1.6-10.98,5.52v24.02c3.32,2.93,7.1,3.95,10.27,3.95,6.44,0,11.7-5.18,11.7-17.5Z"/>
    <path class="cls-66" d="M104.91,90.88c0-19.48,12.51-31.24,25.45-31.24,6.53,0,10.97,2.33,15.01,6.4h.41l-.83-9.21v-20.27h17.67v84.05h-14.39l-1.27-6.12h-.45c-4.37,4.31-10.55,7.56-16.48,7.56-15.21,0-25.11-11.73-25.11-31.17ZM144.96,102.07v-24.02c-3.2-2.93-6.48-3.95-9.96-3.95-6.44,0-12.01,5.24-12.01,16.57s4.32,16.92,11.53,16.92c4.03,0,7.35-1.49,10.43-5.52Z"/>
    <path class="cls-66" d="M177.87,90.82c0-19.48,15.02-31.17,30.97-31.17,18.36,0,28.02,12.39,28.02,28.57,0,3.23-.5,6.43-.74,7.9h-45.16v-11.84h33.22l-2.78,3.37c0-9.56-4.16-14.58-11.98-14.58-8.72,0-14.44,5.91-14.44,17.74s6.72,17.78,18.3,17.78c5.4,0,10.05-1.47,15.33-4.13l5.85,10.64c-6.8,4.36-15.62,6.96-23.6,6.96-18.56,0-33-11.45-33-31.24Z"/>
  </g>
</svg>
